<?xml version="1.0" encoding="utf-8"?>
<!-- Generator: Adobe Illustrator 24.2.1, SVG Export Plug-In . SVG Version: 6.00 Build 0)  -->
<svg version="1.1" id="圖層_1" xmlns="http://www.w3.org/2000/svg" xmlns:xlink="http://www.w3.org/1999/xlink" x="0px" y="0px"
	 viewBox="0 0 340 46" style="enable-background:new 0 0 340 46;" xml:space="preserve">
<style type="text/css">
	.st0{fill:#3E3A39;}
	.st1{fill:#E60012;}
	.st2{fill:#BC0C16;}
	.st3{fill:#0068B7;}
	.st4{fill:#0055A2;}
</style>
<g>
	<g>
		<g>
			<path class="st0" d="M334,3.23c1.34,0,2.22,0.88,2.22,2.42c0,1.24-0.54,1.97-1.39,2.22l1.74,3.4h-1.31l-1.64-3.19h-1.95v3.19
				h-1.22V3.23H334z M331.69,7.1h2.13c0.71,0,1.19-0.44,1.19-1.45c0-0.98-0.47-1.45-1.19-1.45h-2.13V7.1z"/>
		</g>
		<g>
			<path class="st0" d="M333.2,14.05c-3.75,0-6.8-3.05-6.8-6.8s3.05-6.8,6.8-6.8s6.8,3.05,6.8,6.8S336.95,14.05,333.2,14.05z
				 M333.2,1.4c-3.22,0-5.84,2.62-5.84,5.85s2.62,5.85,5.84,5.85s5.84-2.62,5.84-5.85S336.42,1.4,333.2,1.4z"/>
		</g>
	</g>
	<g>
		<path class="st1" d="M66.2,17.22c-6.52,1.36-12.91,3.16-19.28,5.31c-6.34,2.14-12.62,4.93-18.71,7.86c-0.01,0-0.33,0.14-0.35,0.17
			c0.51-0.91,1.02-1.83,1.53-2.74c2.37-4.21,4.77-9.16,7.11-12.44c0.3-0.41-0.19-0.84-0.6-0.53c-10.93,8.48-24.49,29.08-21.14,30.61
			c0,0,2.08,0.66,4.77-0.21c0.56-0.18,1.15-0.4,1.73-0.74c0.42-0.25,1.38-1.1,2.53-1.84c0.33-0.21,0.69-0.44,1.09-0.68
			c0.4-0.25,0.83-0.51,1.29-0.79c10.11-6.06,19.33-10.63,30.08-15.15c6.18-2.6,25.61-10.9,50.81-11.49
			c0.45-0.01,0.55-0.66,0.11-0.69C97.23,13.21,81.07,14.12,66.2,17.22z"/>
		<path class="st2" d="M16.96,45.47c0,0-0.11,0.66,2.58-0.21c0.56-0.18,1.15-0.4,1.73-0.74c0.42-0.25,1.38-1.1,2.53-1.83
			c0.33-0.21,0.69-0.44,1.09-0.69c0.4-0.24,0.83-0.51,1.29-0.79c10.11-6.06,19.33-10.63,30.08-15.15
			c6.18-2.6,25.61-10.9,50.81-11.49c0.45-0.01,0.55-0.7,0.11-0.69C61.54,15.02,13.61,43.94,16.96,45.47z"/>
		<g>
			<polygon class="st1" points="254.5,45.7 245.66,45.7 233.19,23.74 226.7,45.7 217.85,45.7 227.49,13.02 236.37,13.02 
				248.87,34.89 255.32,13.02 264.14,13.02 			"/>
			<path class="st2" d="M218.8,45.7h7.9l1.29-4.37C224.99,42.9,221.93,44.36,218.8,45.7"/>
			<path class="st2" d="M251.64,25.49l-2.78,9.4l-2.83-4.95c-2.17,1.63-4.4,3.19-6.67,4.69l6.29,11.08h8.85l9.41-31.91
				C260.08,17.94,255.98,21.85,251.64,25.49"/>
		</g>
		<g>
			<path class="st1" d="M296.66,35.29H274c-0.02,0.25-0.03,0.45-0.03,0.58c0,1.58,0.64,2.85,1.9,3.81c1.27,0.97,2.82,1.45,4.64,1.45
				c3,0,5.34-1.1,7.02-3.3l8.09,0.96c-1.57,2.3-3.68,4.03-6.31,5.18c-2.63,1.15-5.59,1.73-8.86,1.73c-4.49,0-8.14-1.01-10.96-3.02
				c-2.81-2.01-4.22-4.68-4.22-7.99c0-3.24,1.27-6.12,3.81-8.65c3.46-3.42,8.41-5.13,14.83-5.13c4.09,0,7.35,0.9,9.76,2.69
				c2.41,1.79,3.62,4.3,3.62,7.52C297.3,32.67,297.08,34.06,296.66,35.29 M289.04,31.39c0.02-0.28,0.03-0.5,0.03-0.65
				c0-1.75-0.56-3.07-1.67-3.95c-1.11-0.88-2.6-1.32-4.47-1.32c-1.87,0-3.54,0.5-5.02,1.49c-1.48,1-2.48,2.47-3.01,4.41H289.04z"/>
			<path class="st2" d="M280.51,41.13c-0.62,0-1.21-0.06-1.76-0.17c-2.17,1.13-4.36,2.2-6.6,3.21c2.34,1.02,5.1,1.54,8.3,1.54
				c3.27,0,6.23-0.58,8.86-1.73c2.63-1.15,4.74-2.88,6.31-5.18l-8.09-0.96C285.85,40.03,283.51,41.13,280.51,41.13"/>
			<path class="st2" d="M288.6,35.29h8.06c0.42-1.23,0.63-2.62,0.63-4.17c0-0.61-0.06-1.18-0.14-1.73
				C294.39,31.46,291.53,33.43,288.6,35.29"/>
		</g>
		<g>
			<path class="st1" d="M302.24,26.22l1.39-4.75h4.41l1.1-3.79l10.36-4.41l-2.42,8.21h5.51l-1.38,4.75h-5.54l-2.93,9.92
				c-0.52,1.8-0.79,2.82-0.79,3.08c0,0.49,0.22,0.87,0.66,1.15c0.44,0.28,1.24,0.41,2.39,0.41c0.4,0,1.4-0.05,2.99-0.16l-1.42,4.75
				c-1.55,0.22-3.15,0.33-4.79,0.33c-3.19,0-5.51-0.43-6.96-1.3c-1.45-0.87-2.17-2.08-2.17-3.62c0-0.73,0.39-2.41,1.16-5.04
				l2.8-9.52H302.24z"/>
			<path class="st2" d="M312.6,40.36c-0.44-0.28-0.66-0.66-0.66-1.15c0-0.25,0.26-1.28,0.79-3.08l0.54-1.83
				c-3.43,2.24-6.96,4.33-10.6,6.25c-0.01,0.08-0.01,0.16-0.01,0.22c0,1.55,0.72,2.75,2.17,3.62c1.45,0.87,3.77,1.3,6.96,1.3
				c1.64,0,3.23-0.11,4.79-0.33l1.42-4.75c-1.6,0.1-2.59,0.16-2.99,0.16C313.84,40.78,313.04,40.64,312.6,40.36"/>
		</g>
		<path class="st3" d="M54.48,31.08c-2.79,1.13-5.35,2.22-7.71,3.27c-1.37,3.52-2.96,7.31-4.74,11.34h22.04
			c0.57-3.58,1.28-11,0.91-18.63C61.35,28.38,57.83,29.73,54.48,31.08z"/>
		<path class="st4" d="M42.04,45.7h22.04c0.57-3.58,1.28-11,0.91-18.63C56.7,39.02,42.04,45.7,42.04,45.7z"/>
		<g>
			<path class="st3" d="M174.46,22.64c2.77,1.55,4.26,3.78,4.48,6.7c0.08,1.08-0.02,2.24-0.29,3.47
				c-1.26,5.31-4.74,9.05-10.43,11.21c-2.91,1.11-5.67,1.66-8.27,1.67l-4.63,0.01c-3.3,0-6.1-0.68-8.41-2.04
				c-2.7-1.6-4.16-3.87-4.38-6.81c-0.09-1.16,0.03-2.39,0.35-3.71c1.21-5.1,4.65-8.71,10.32-10.82c2.94-1.11,5.7-1.66,8.28-1.67
				l4.67-0.01C169.34,20.64,172.12,21.31,174.46,22.64 M169.82,30.42c-0.12-1.63-0.7-2.94-1.75-3.92c-1.04-0.98-2.43-1.47-4.15-1.47
				l-2.8,0c-1.22,0-2.55,0.36-4,1.07c-2.76,1.37-4.53,3.7-5.32,6.99c-0.23,1.02-0.3,2-0.23,2.92c0.12,1.63,0.7,2.93,1.74,3.9
				c1.04,0.97,2.42,1.45,4.15,1.45l2.8,0c1.24,0,2.57-0.36,3.96-1.07c2.76-1.34,4.53-3.66,5.32-6.95
				C169.8,32.31,169.89,31.34,169.82,30.42"/>
			<path class="st4" d="M178.94,29.35c-0.11-1.42-0.52-2.69-1.24-3.78c-2.5,2.83-5.26,5.3-8.09,7.47c-0.02,0.11-0.03,0.21-0.05,0.32
				c-0.79,3.28-2.57,5.6-5.32,6.95c-1.4,0.71-2.72,1.07-3.96,1.07l-2.8,0c-0.53,0-1.01-0.06-1.48-0.15
				c-2.98,1.4-5.65,2.44-7.69,3.16c1.93,0.84,4.14,1.28,6.64,1.32H160c2.59-0.01,5.32-0.57,8.21-1.67
				c5.55-2.11,8.98-5.73,10.32-10.83c0.07-0.31,0.15-0.63,0.22-0.95C178.94,31.23,179,30.26,178.94,29.35"/>
		</g>
		<g>
			<path class="st3" d="M210.51,22.66c2.72,1.6,4.19,3.87,4.41,6.82c0.09,1.13-0.02,2.33-0.32,3.59l-2.97,12.63h-8.6l2.94-12.44
				c0.23-1,0.3-1.94,0.24-2.81c-0.12-1.68-0.75-3.02-1.89-4.01c-1.14-0.98-2.61-1.48-4.43-1.47l-6.19,0.01l-4.92,20.72h-8.64
				l5.91-24.97l16.03-0.1C205.4,20.62,208.2,21.3,210.51,22.66"/>
			<path class="st4" d="M189.59,42.3c-5.5,2.38-9.41,3.39-9.43,3.4h1.7h6.93L189.59,42.3z"/>
			<path class="st4" d="M214.93,29.48c-0.11-1.46-0.53-2.75-1.25-3.88c-2.36,2.66-4.95,5.01-7.61,7.08
				c-0.03,0.19-0.05,0.37-0.09,0.57l-2.94,12.44h8.6c0.13-0.55,1.07-4.65,3.12-13.37C214.94,31.33,215,30.39,214.93,29.48"/>
		</g>
		<g>
			<path class="st3" d="M141.31,20.65l-1.06,4.34l-15.55,0.02c-1.06,0-2.08,0.14-3.05,0.4c-1.83,0.48-2.88,1.3-3.13,2.47
				c-0.07,0.24-0.1,0.46-0.09,0.68c0.07,0.93,0.77,1.6,2.09,2.02c0.9,0.29,1.91,0.44,3.04,0.43l4.18-0.01c2.3,0,4.4,0.33,6.3,1.01
				c2.67,0.94,4.09,2.39,4.23,4.36c0.04,0.5,0,1.03-0.12,1.61c-0.72,2.99-3.28,5.15-7.67,6.5c-2.25,0.71-4.4,1.09-6.45,1.15
				l-18.35,0.07l1.02-4.38l15.66-0.02c1.06,0,2.09-0.14,3.08-0.4c1.81-0.48,2.85-1.3,3.13-2.47c0.05-0.24,0.07-0.46,0.05-0.68
				c-0.07-0.92-0.76-1.6-2.09-2.02c-0.9-0.29-1.9-0.44-3-0.43l-4.32,0.01c-2.28,0-4.37-0.34-6.26-1.01
				c-2.68-0.97-4.09-2.42-4.23-4.36c-0.04-0.5,0-1.04,0.12-1.61c0.72-2.99,3.27-5.16,7.64-6.5c2.25-0.71,4.41-1.09,6.48-1.15
				L141.31,20.65z"/>
			<path class="st4" d="M140.26,24.98l0.79-3.23c0.08-0.36,0.16-0.73,0.25-1.11h-0.04c-1.04,1.53-2.17,2.97-3.35,4.34L140.26,24.98z
				"/>
			<path class="st4" d="M138.15,37.98c0.12-0.58,0.16-1.12,0.12-1.61c-0.15-1.96-1.56-3.42-4.23-4.36c-0.83-0.3-1.71-0.52-2.62-0.68
				c-1.86,1.55-3.77,2.95-5.68,4.22c0.27,0.06,0.55,0.1,0.8,0.18c1.32,0.42,2.02,1.09,2.09,2.02c0.02,0.21,0,0.43-0.05,0.67
				c-0.28,1.17-1.33,1.99-3.13,2.47c-1,0.27-2.02,0.4-3.08,0.4l-6.88,0.01c-4.14,1.94-7.62,3.18-9.67,3.84l-0.13,0.55l15.16-0.06
				l3.3-0.02c2.01-0.07,4.13-0.44,6.34-1.14C134.87,43.14,137.43,40.97,138.15,37.98"/>
		</g>
		<g>
			<path class="st3" d="M89.83,20.64l15.99,0.06l-5.87,25h-8.62l4.83-20.73l-6.19,0.01c-1.82,0-3.53,0.5-5.13,1.49
				c-1.6,0.99-2.86,2.33-3.78,4.01c-0.48,0.87-0.84,1.81-1.08,2.81L77.08,45.7h-8.58l2.95-12.57c0.3-1.26,0.76-2.46,1.37-3.59
				c1.61-2.95,4.15-5.23,7.63-6.83C83.41,21.33,86.53,20.65,89.83,20.64z"/>
			<path class="st4" d="M105.82,20.67c-3.23,4.78-7.26,8.75-11.46,12.01l-3.02,13h8.62c0,0,0.01,0.03,0.01,0h0.02L105.82,20.67z"/>
			<path class="st4" d="M68.49,45.68h8.59l0.79-3.4C72.39,44.64,68.49,45.68,68.49,45.68z"/>
		</g>
		<g>
			<path class="st3" d="M34.5,9.8c6.87-6.18,10.79-6.73,13.33-6.72c5.55,0.03,6.48,6,3.74,16.6c0.66-0.2,1.32-0.4,1.96-0.59
				c3.29-0.98,6.71-1.89,10.18-2.74C61.56,6.42,56.43-1.52,45.33,0.66C33.91,2.9,16.29,21.87,0,45.7h6.99
				C12.8,34.84,23.5,19.71,34.5,9.8z"/>
			<path class="st4" d="M0,45.7C0,45.7,0,45.7,0,45.7l6.99,0c1.59-2.97,3.54-6.26,5.77-9.67c0.45-0.68,0.9-1.37,1.37-2.06
				c3.14-4.65,6.73-9.46,10.55-13.94L0,45.7z"/>
		</g>
	</g>
</g>
</svg>
